# xmcd
#
# Track frame offsets:
# 150
# 18413
# 36010
# 52573
# 70418
# 97463
# 114705
# 130131
# 149796
# 163652
# 179843
# 193841
# 206417
# 220966
# 240845
# 258773
# 273401
# 290956
# 311724
# 329809
#
# Disc length: 4542 seconds
#
#
# Revision: 0
# Processed by: cddbd v1.5.1PL0 Copyright (c) Steve Scherf et al.
# Submitted via: FreeRIP 2.90 
#
DISCID=4611bc14
DTITLE=Many - The midnight hour
DYEAR=1995
DGENRE=Soul
TTITLE0=Elton John - Your song
TTITLE1=Marvin Gaye- Let's get it on
TTITLE2=Paul Waller- You do something to me
TTITLE3=Boys II Man - I'll make love to you
TTITLE4=10CC - I'm not in love
TTITLE5=Joe Coker and Jenifer Warnes - Up where we belong
TTITLE6=Diana Ross - Touch me in the morning
TTITLE7=Robert Palmer- Addicted to love
TTITLE8=Inxs - Need you tonight
TTITLE9=The Cure - Friday i'm in love
TTITLE10=Etta James - I just wanna make love to you
TTITLE11=James Brown - It's a man's man's world
TTITLE12=Boyzone - Baby can I hold you
TTITLE13=Lionel Richie and Diana Ross - Endless love
TTITLE14=Marti Pellow - Love is all around
TTITLE15=Mama Cass - Dream a little dream
TTITLE16=Jackson 5 - I'll be there
TTITLE17=Dodgy - If you're thinking of me
TTITLE18=Extreme - More than words
TTITLE19=The commitments - The midnight hour
EXTD=bla bla bla
EXTT0=
EXTT1=
EXTT2=
EXTT3=
EXTT4=
EXTT5=
EXTT6=
EXTT7=
EXTT8=
EXTT9=
EXTT10=
EXTT11=
EXTT12=
EXTT13=
EXTT14=
EXTT15=
EXTT16=
EXTT17=
EXTT18=
EXTT19=
PLAYORDER=
